<mxfile host="app.diagrams.net" modified="2023-09-05T17:17:19.180Z" agent="Mozilla/5.0 (Windows NT 10.0; Win64; x64) AppleWebKit/537.36 (KHTML, like Gecko) Chrome/116.0.0.0 Safari/537.36" etag="GBEcQDilVBCuOaoZmLWP" version="21.6.2" type="device">
  <diagram name="Trang-1" id="FjWZiI6CqdOcznlWjRTV">
    <mxGraphModel dx="1647" dy="904" grid="1" gridSize="10" guides="1" tooltips="1" connect="1" arrows="1" fold="1" page="1" pageScale="1" pageWidth="827" pageHeight="1169" math="0" shadow="0">
      <root>
        <mxCell id="0" />
        <mxCell id="1" parent="0" />
        <mxCell id="U5e7TNnSB-oZa5pznWMq-6" style="edgeStyle=orthogonalEdgeStyle;rounded=0;orthogonalLoop=1;jettySize=auto;html=1;exitX=0.5;exitY=1;exitDx=0;exitDy=0;entryX=0.5;entryY=0;entryDx=0;entryDy=0;" edge="1" parent="1" source="U5e7TNnSB-oZa5pznWMq-1" target="U5e7TNnSB-oZa5pznWMq-2">
          <mxGeometry relative="1" as="geometry" />
        </mxCell>
        <mxCell id="U5e7TNnSB-oZa5pznWMq-1" value="&lt;font style=&quot;font-size: 16px;&quot;&gt;Begin&lt;/font&gt;" style="ellipse;whiteSpace=wrap;html=1;" vertex="1" parent="1">
          <mxGeometry x="330" y="70" width="120" height="80" as="geometry" />
        </mxCell>
        <mxCell id="U5e7TNnSB-oZa5pznWMq-7" style="edgeStyle=orthogonalEdgeStyle;rounded=0;orthogonalLoop=1;jettySize=auto;html=1;exitX=0.5;exitY=1;exitDx=0;exitDy=0;entryX=0.5;entryY=0;entryDx=0;entryDy=0;" edge="1" parent="1" source="U5e7TNnSB-oZa5pznWMq-2" target="U5e7TNnSB-oZa5pznWMq-3">
          <mxGeometry relative="1" as="geometry" />
        </mxCell>
        <mxCell id="U5e7TNnSB-oZa5pznWMq-2" value="&lt;font style=&quot;font-size: 14px;&quot;&gt;input C&lt;/font&gt;" style="shape=parallelogram;perimeter=parallelogramPerimeter;whiteSpace=wrap;html=1;fixedSize=1;" vertex="1" parent="1">
          <mxGeometry x="330" y="230" width="120" height="60" as="geometry" />
        </mxCell>
        <mxCell id="U5e7TNnSB-oZa5pznWMq-8" style="edgeStyle=orthogonalEdgeStyle;rounded=0;orthogonalLoop=1;jettySize=auto;html=1;exitX=0.5;exitY=1;exitDx=0;exitDy=0;entryX=0.5;entryY=0;entryDx=0;entryDy=0;" edge="1" parent="1" source="U5e7TNnSB-oZa5pznWMq-3" target="U5e7TNnSB-oZa5pznWMq-4">
          <mxGeometry relative="1" as="geometry" />
        </mxCell>
        <mxCell id="U5e7TNnSB-oZa5pznWMq-3" value="&lt;span style=&quot;font-size: 14px;&quot;&gt;F = (C*9)\5 + 32&lt;/span&gt;" style="rounded=0;whiteSpace=wrap;html=1;" vertex="1" parent="1">
          <mxGeometry x="330" y="400" width="120" height="60" as="geometry" />
        </mxCell>
        <mxCell id="U5e7TNnSB-oZa5pznWMq-9" style="edgeStyle=orthogonalEdgeStyle;rounded=0;orthogonalLoop=1;jettySize=auto;html=1;exitX=0.5;exitY=1;exitDx=0;exitDy=0;entryX=0.5;entryY=0;entryDx=0;entryDy=0;" edge="1" parent="1" source="U5e7TNnSB-oZa5pznWMq-4" target="U5e7TNnSB-oZa5pznWMq-5">
          <mxGeometry relative="1" as="geometry" />
        </mxCell>
        <mxCell id="U5e7TNnSB-oZa5pznWMq-4" value="&lt;font style=&quot;font-size: 14px;&quot;&gt;Display F&lt;/font&gt;" style="shape=parallelogram;perimeter=parallelogramPerimeter;whiteSpace=wrap;html=1;fixedSize=1;" vertex="1" parent="1">
          <mxGeometry x="330" y="540" width="120" height="60" as="geometry" />
        </mxCell>
        <mxCell id="U5e7TNnSB-oZa5pznWMq-5" value="&lt;font style=&quot;font-size: 14px;&quot;&gt;End&lt;/font&gt;" style="ellipse;whiteSpace=wrap;html=1;" vertex="1" parent="1">
          <mxGeometry x="330" y="660" width="120" height="80" as="geometry" />
        </mxCell>
      </root>
    </mxGraphModel>
  </diagram>
</mxfile>
